<?xml version="1.0" standalone="no"?>
<!DOCTYPE svg PUBLIC "-//W3C//DTD SVG 20010904//EN"
 "http://www.w3.org/TR/2001/REC-SVG-20010904/DTD/svg10.dtd">
<svg version="1.0" xmlns="http://www.w3.org/2000/svg"
 width="700.000000pt" height="700.000000pt" viewBox="0 0 700.000000 700.000000"
 preserveAspectRatio="xMidYMid meet">
<metadata>
Created by potrace 1.11, written by Peter Selinger 2001-2013
</metadata>
<g transform="translate(0.000000,700.000000) scale(0.100000,-0.100000)"
fill="#000000" stroke="none">
<path d="M3348 6415 c-2 -1 -52 -5 -113 -9 -60 -3 -121 -8 -135 -10 -23 -4
-59 -9 -160 -22 -19 -3 -44 -7 -56 -9 -12 -3 -39 -7 -60 -11 -32 -5 -219 -45
-274 -59 -104 -26 -339 -106 -470 -160 -115 -48 -344 -163 -369 -186 -72 -68
-59 -182 27 -232 56 -33 96 -25 237 46 172 86 220 106 365 160 232 86 488 146
780 182 81 10 276 19 410 18 227 -1 365 -13 573 -49 290 -49 595 -152 925
-312 152 -74 192 -80 246 -38 66 50 84 143 39 205 -32 43 -280 163 -542 261
-143 54 -365 122 -445 136 -16 3 -33 7 -36 9 -8 5 -236 43 -300 51 -19 2 -53
6 -75 9 -99 12 -194 17 -372 19 -106 2 -194 2 -195 1z"/>
<path d="M3357 5704 c-1 -1 -45 -5 -98 -8 -52 -4 -106 -9 -120 -11 -13 -2 -46
-6 -74 -9 -242 -25 -556 -106 -820 -211 -102 -40 -325 -153 -434 -219 -199
-119 -379 -260 -555 -434 -92 -91 -140 -144 -275 -307 -53 -64 -101 -145 -104
-175 -13 -118 107 -201 211 -146 13 7 59 59 102 115 191 251 419 466 680 640
107 71 118 77 275 157 316 162 661 262 1020 298 33 4 78 9 100 11 93 11 456 5
564 -9 20 -3 61 -8 91 -11 92 -10 298 -54 427 -90 360 -101 710 -280 993 -508
118 -95 357 -341 448 -462 97 -128 133 -154 199 -148 83 7 133 63 133 146 0
56 -21 89 -173 272 -442 532 -1052 894 -1752 1040 -70 14 -179 33 -245 41 -19
2 -48 6 -65 8 -85 13 -517 29 -528 20z"/>
<path d="M3275 5003 c-52 -6 -239 -33 -270 -39 -16 -2 -84 -19 -150 -36 -217
-56 -425 -140 -603 -245 -41 -24 -78 -43 -83 -43 -5 0 -9 -4 -9 -10 0 -5 -4
-10 -10 -10 -12 0 -128 -82 -225 -159 -38 -30 -122 -107 -185 -171 -244 -244
-419 -522 -530 -840 -38 -108 -81 -309 -97 -450 -15 -144 -9 -560 11 -680 3
-14 10 -59 16 -100 7 -41 14 -84 16 -95 2 -11 6 -32 9 -47 31 -171 139 -513
173 -552 66 -73 193 -60 237 24 24 46 18 91 -29 232 -60 180 -106 363 -121
484 -4 27 -8 56 -10 64 -27 97 -26 643 0 740 2 8 7 31 10 50 12 74 60 239 92
320 227 564 737 1010 1363 1191 57 16 118 32 135 34 16 3 50 9 75 15 25 5 65
12 90 15 25 3 65 8 90 11 69 8 304 9 406 1 658 -51 1268 -409 1619 -950 150
-232 255 -512 291 -778 17 -129 19 -296 3 -369 -12 -60 -57 -156 -96 -209
-176 -232 -511 -308 -779 -175 -134 66 -251 196 -296 330 -18 52 -22 80 -32
222 -16 206 -91 375 -235 526 -107 112 -242 192 -411 243 -75 23 -103 26 -245
27 -107 0 -175 -4 -205 -13 -25 -7 -52 -15 -60 -16 -72 -16 -184 -71 -277
-137 -247 -176 -373 -445 -358 -763 2 -55 7 -120 10 -145 3 -25 7 -65 10 -90
30 -241 156 -588 295 -810 97 -156 184 -263 327 -407 275 -274 592 -461 985
-579 109 -32 136 -35 180 -17 49 20 78 60 84 120 11 99 -30 133 -235 198 -284
89 -504 213 -717 401 -150 133 -257 256 -353 404 -185 286 -288 619 -293 953
-2 140 5 184 46 272 98 211 300 339 543 344 81 2 170 -9 218 -28 94 -35 167
-82 236 -151 105 -104 155 -213 164 -357 12 -186 27 -255 80 -370 118 -256
352 -435 650 -497 69 -14 319 -17 341 -3 6 3 25 9 43 12 52 9 150 45 216 80
280 146 457 422 468 730 5 124 -11 306 -39 440 -103 498 -372 953 -754 1275
-36 30 -67 57 -70 60 -3 3 -36 28 -75 56 -352 257 -770 416 -1215 462 -83 9
-406 12 -465 5z"/>
<path d="M3398 4295 c-2 -2 -34 -5 -73 -9 -70 -6 -109 -11 -155 -22 -14 -3
-36 -8 -50 -10 -129 -22 -338 -106 -498 -200 -402 -237 -700 -676 -759 -1119
-10 -77 -10 -406 0 -510 26 -259 102 -560 198 -775 112 -253 316 -570 490
-762 218 -239 248 -259 340 -232 59 18 97 66 100 129 3 52 -16 85 -95 167
-220 231 -316 358 -466 619 -140 245 -224 497 -266 804 -21 150 -25 427 -8
535 75 471 423 866 900 1024 44 14 91 29 105 31 13 3 35 7 49 10 57 12 78 15
150 22 93 8 206 8 286 -1 54 -5 87 -11 192 -32 149 -30 357 -128 507 -239 305
-226 489 -568 512 -945 6 -107 20 -142 73 -177 68 -46 163 -19 203 57 16 30
18 51 13 145 -3 61 -8 124 -11 140 -38 195 -64 278 -131 423 -188 404 -556
715 -1009 855 -80 25 -205 51 -299 63 -47 6 -293 13 -298 9z"/>
<path d="M3430 2859 c-33 -14 -70 -49 -81 -78 -20 -52 -10 -220 23 -370 78
-366 290 -691 598 -922 315 -235 698 -335 1140 -295 224 20 292 58 296 164 3
66 -27 114 -86 139 -35 15 -68 14 -205 -6 -59 -9 -356 -7 -405 2 -14 2 -53 10
-88 16 -201 38 -415 147 -580 297 -56 50 -192 205 -192 217 0 4 -13 25 -29 49
-101 149 -173 363 -186 551 -10 133 -15 159 -36 189 -36 50 -109 71 -169 47z"/>
</g>
</svg>
